<svg width="498" height="1002" viewBox="0 0 498 1002" fill="none" xmlns="http://www.w3.org/2000/svg">
<circle cx="249" cy="600" r="2" fill="#003B73"/>
<circle cx="177" cy="439" r="2" fill="#003B73"/>
<circle cx="234" cy="448" r="2" fill="#003B73"/>
<circle cx="226" cy="517" r="2" fill="#003B73"/>
<circle cx="276" cy="517" r="2" fill="#003B73"/>
<circle cx="253" cy="517" r="2" fill="#003B73"/>
<circle cx="311" cy="448" r="2" fill="#003B73"/>
<circle cx="303" cy="517" r="2" fill="#003B73"/>
<circle cx="196" cy="393" r="2" fill="#003B73"/>
<circle cx="188" cy="462" r="2" fill="#003B73"/>
<circle cx="246" cy="393" r="2" fill="#003B73"/>
<circle cx="238" cy="462" r="2" fill="#003B73"/>
<circle cx="296" cy="393" r="2" fill="#003B73"/>
<circle cx="288" cy="462" r="2" fill="#003B73"/>
<circle cx="338" cy="462" r="2" fill="#003B73"/>
<circle cx="165" cy="416" r="2" fill="#003B73"/>
<circle cx="215" cy="416" r="2" fill="#003B73"/>
<circle cx="207" cy="485" r="2" fill="#003B73"/>
<circle cx="265" cy="416" r="2" fill="#003B73"/>
<circle cx="257" cy="485" r="2" fill="#003B73"/>
<circle cx="315" cy="416" r="2" fill="#003B73"/>
<circle cx="307" cy="485" r="2" fill="#003B73"/>
<circle cx="208" cy="370" r="2" fill="#003B73"/>
<circle cx="200" cy="439" r="2" fill="#003B73"/>
<circle cx="192" cy="508" r="2" fill="#003B73"/>
<circle cx="258" cy="370" r="2" fill="#003B73"/>
<circle cx="242" cy="508" r="2" fill="#003B73"/>
<circle cx="300" cy="439" r="2" fill="#003B73"/>
<circle cx="292" cy="508" r="2" fill="#003B73"/>
<circle cx="165" cy="462" r="2" fill="#003B73"/>
<circle cx="223" cy="393" r="2" fill="#003B73"/>
<circle cx="273" cy="393" r="2" fill="#003B73"/>
<circle cx="323" cy="393" r="2" fill="#003B73"/>
<circle cx="315" cy="462" r="2" fill="#003B73"/>
<circle cx="192" cy="416" r="2" fill="#003B73"/>
<circle cx="184" cy="485" r="2" fill="#003B73"/>
<circle cx="242" cy="416" r="2" fill="#003B73"/>
<circle cx="234" cy="485" r="2" fill="#003B73"/>
<circle cx="292" cy="416" r="2" fill="#003B73"/>
<circle cx="284" cy="485" r="2" fill="#003B73"/>
<circle cx="334" cy="485" r="2" fill="#003B73"/>
<circle cx="235" cy="370" r="2" fill="#003B73"/>
<circle cx="219" cy="508" r="2" fill="#003B73"/>
<circle cx="285" cy="370" r="2" fill="#003B73"/>
<circle cx="269" cy="508" r="2" fill="#003B73"/>
<circle cx="327" cy="439" r="2" fill="#003B73"/>
<circle cx="319" cy="508" r="2" fill="#003B73"/>
<circle cx="180" cy="402" r="2" fill="#003B73"/>
<circle cx="172" cy="471" r="2" fill="#003B73"/>
<circle cx="230" cy="402" r="2" fill="#003B73"/>
<circle cx="222" cy="471" r="2" fill="#003B73"/>
<circle cx="280" cy="402" r="2" fill="#003B73"/>
<circle cx="272" cy="471" r="2" fill="#003B73"/>
<circle cx="322" cy="471" r="2" fill="#003B73"/>
<circle cx="199" cy="425" r="2" fill="#003B73"/>
<circle cx="191" cy="494" r="2" fill="#003B73"/>
<circle cx="241" cy="494" r="2" fill="#003B73"/>
<circle cx="299" cy="425" r="2" fill="#003B73"/>
<circle cx="291" cy="494" r="2" fill="#003B73"/>
<circle cx="192" cy="379" r="2" fill="#003B73"/>
<circle cx="184" cy="448" r="2" fill="#003B73"/>
<circle cx="242" cy="379" r="2" fill="#003B73"/>
<circle cx="292" cy="379" r="2" fill="#003B73"/>
<circle cx="284" cy="448" r="2" fill="#003B73"/>
<circle cx="334" cy="448" r="2" fill="#003B73"/>
<circle cx="207" cy="402" r="2" fill="#003B73"/>
<circle cx="199" cy="471" r="2" fill="#003B73"/>
<circle cx="257" cy="402" r="2" fill="#003B73"/>
<circle cx="249" cy="471" r="2" fill="#003B73"/>
<circle cx="307" cy="402" r="2" fill="#003B73"/>
<circle cx="299" cy="471" r="2" fill="#003B73"/>
<circle cx="176" cy="425" r="2" fill="#003B73"/>
<circle cx="168" cy="494" r="2" fill="#003B73"/>
<circle cx="226" cy="425" r="2" fill="#003B73"/>
<circle cx="218" cy="494" r="2" fill="#003B73"/>
<circle cx="276" cy="425" r="2" fill="#003B73"/>
<circle cx="268" cy="494" r="2" fill="#003B73"/>
<circle cx="326" cy="425" r="2" fill="#003B73"/>
<circle cx="318" cy="494" r="2" fill="#003B73"/>
<circle cx="161" cy="448" r="2" fill="#003B73"/>
<circle cx="219" cy="379" r="2" fill="#003B73"/>
<circle cx="211" cy="448" r="2" fill="#003B73"/>
<circle cx="269" cy="379" r="2" fill="#003B73"/>
<circle cx="18" cy="807" r="2" fill="#003B73"/>
<circle cx="50" cy="876" r="2" fill="#003B73"/>
<circle cx="68" cy="807" r="2" fill="#003B73"/>
<circle cx="100" cy="876" r="2" fill="#003B73"/>
<circle cx="132" cy="945" r="2" fill="#003B73"/>
<circle cx="182" cy="945" r="2" fill="#003B73"/>
<circle cx="232" cy="945" r="2" fill="#003B73"/>
<circle cx="218" cy="807" r="2" fill="#003B73"/>
<circle cx="250" cy="876" r="2" fill="#003B73"/>
<circle cx="282" cy="945" r="2" fill="#003B73"/>
<circle cx="172" cy="600" r="2" fill="#003B73"/>
<circle cx="204" cy="669" r="2" fill="#003B73"/>
<circle cx="236" cy="738" r="2" fill="#003B73"/>
<circle cx="268" cy="807" r="2" fill="#003B73"/>
<circle cx="300" cy="876" r="2" fill="#003B73"/>
<circle cx="332" cy="945" r="2" fill="#003B73"/>
<circle cx="230" cy="531" r="2" fill="#003B73"/>
<circle cx="222" cy="600" r="2" fill="#003B73"/>
<circle cx="254" cy="669" r="2" fill="#003B73"/>
<circle cx="286" cy="738" r="2" fill="#003B73"/>
<circle cx="382" cy="945" r="2" fill="#003B73"/>
<circle cx="280" cy="531" r="2" fill="#003B73"/>
<circle cx="272" cy="600" r="2" fill="#003B73"/>
<circle cx="400" cy="876" r="2" fill="#003B73"/>
<circle cx="418" cy="807" r="2" fill="#003B73"/>
<circle cx="450" cy="876" r="2" fill="#003B73"/>
<circle cx="468" cy="807" r="2" fill="#003B73"/>
<circle cx="5" cy="761" r="2" fill="#003B73"/>
<circle cx="37" cy="830" r="2" fill="#003B73"/>
<circle cx="29" cy="841" r="2" fill="#003B73"/>
<circle cx="69" cy="899" r="2" fill="#003B73"/>
<circle cx="87" cy="830" r="2" fill="#003B73"/>
<circle cx="119" cy="899" r="2" fill="#003B73"/>
<circle cx="151" cy="968" r="2" fill="#003B73"/>
<circle cx="201" cy="968" r="2" fill="#003B73"/>
<circle cx="219" cy="899" r="2" fill="#003B73"/>
<circle cx="251" cy="968" r="2" fill="#003B73"/>
<circle cx="149" cy="554" r="2" fill="#003B73"/>
<circle cx="237" cy="830" r="2" fill="#003B73"/>
<circle cx="269" cy="899" r="2" fill="#003B73"/>
<circle cx="301" cy="968" r="2" fill="#003B73"/>
<circle cx="199" cy="554" r="2" fill="#003B73"/>
<circle cx="191" cy="623" r="2" fill="#003B73"/>
<circle cx="223" cy="692" r="2" fill="#003B73"/>
<circle cx="255" cy="761" r="2" fill="#003B73"/>
<circle cx="287" cy="830" r="2" fill="#003B73"/>
<circle cx="319" cy="899" r="2" fill="#003B73"/>
<circle cx="351" cy="968" r="2" fill="#003B73"/>
<circle cx="249" cy="554" r="2" fill="#003B73"/>
<circle cx="241" cy="623" r="2" fill="#003B73"/>
<circle cx="273" cy="692" r="2" fill="#003B73"/>
<circle cx="305" cy="761" r="2" fill="#003B73"/>
<circle cx="337" cy="830" r="2" fill="#003B73"/>
<circle cx="369" cy="899" r="2" fill="#003B73"/>
<circle cx="387" cy="830" r="2" fill="#003B73"/>
<circle cx="419" cy="899" r="2" fill="#003B73"/>
<circle cx="437" cy="830" r="2" fill="#003B73"/>
<circle cx="40" cy="784" r="2" fill="#003B73"/>
<circle cx="72" cy="853" r="2" fill="#003B73"/>
<circle cx="104" cy="922" r="2" fill="#003B73"/>
<circle cx="154" cy="922" r="2" fill="#003B73"/>
<circle cx="186" cy="991" r="2" fill="#003B73"/>
<circle cx="236" cy="991" r="2" fill="#003B73"/>
<circle cx="222" cy="853" r="2" fill="#003B73"/>
<circle cx="254" cy="922" r="2" fill="#003B73"/>
<circle cx="286" cy="991" r="2" fill="#003B73"/>
<circle cx="240" cy="784" r="2" fill="#003B73"/>
<circle cx="272" cy="853" r="2" fill="#003B73"/>
<circle cx="234" cy="577" r="2" fill="#003B73"/>
<circle cx="226" cy="646" r="2" fill="#003B73"/>
<circle cx="258" cy="715" r="2" fill="#003B73"/>
<circle cx="290" cy="784" r="2" fill="#003B73"/>
<circle cx="322" cy="853" r="2" fill="#003B73"/>
<circle cx="354" cy="922" r="2" fill="#003B73"/>
<circle cx="284" cy="577" r="2" fill="#003B73"/>
<circle cx="276" cy="646" r="2" fill="#003B73"/>
<circle cx="308" cy="715" r="2" fill="#003B73"/>
<circle cx="404" cy="922" r="2" fill="#003B73"/>
<circle cx="422" cy="853" r="2" fill="#003B73"/>
<circle cx="440" cy="784" r="2" fill="#003B73"/>
<circle cx="472" cy="853" r="2" fill="#003B73"/>
<circle cx="490" cy="784" r="2" fill="#003B73"/>
<circle cx="45" cy="807" r="2" fill="#003B73"/>
<circle cx="77" cy="876" r="2" fill="#003B73"/>
<circle cx="109" cy="945" r="2" fill="#003B73"/>
<circle cx="95" cy="807" r="2" fill="#003B73"/>
<circle cx="159" cy="945" r="2" fill="#003B73"/>
<circle cx="209" cy="945" r="2" fill="#003B73"/>
<circle cx="227" cy="876" r="2" fill="#003B73"/>
<circle cx="259" cy="945" r="2" fill="#003B73"/>
<circle cx="157" cy="531" r="2" fill="#003B73"/>
<circle cx="245" cy="807" r="2" fill="#003B73"/>
<circle cx="277" cy="876" r="2" fill="#003B73"/>
<circle cx="309" cy="945" r="2" fill="#003B73"/>
<circle cx="199" cy="600" r="2" fill="#003B73"/>
<circle cx="231" cy="669" r="2" fill="#003B73"/>
<circle cx="263" cy="738" r="2" fill="#003B73"/>
<circle cx="295" cy="807" r="2" fill="#003B73"/>
<circle cx="327" cy="876" r="2" fill="#003B73"/>
<circle cx="359" cy="945" r="2" fill="#003B73"/>
<circle cx="257" cy="531" r="2" fill="#003B73"/>
<circle cx="281" cy="669" r="2" fill="#003B73"/>
<circle cx="313" cy="738" r="2" fill="#003B73"/>
<circle cx="427" cy="876" r="2" fill="#003B73"/>
<circle cx="445" cy="807" r="2" fill="#003B73"/>
<circle cx="14" cy="830" r="2" fill="#003B73"/>
<circle cx="32" cy="761" r="2" fill="#003B73"/>
<circle cx="64" cy="830" r="2" fill="#003B73"/>
<circle cx="96" cy="899" r="2" fill="#003B73"/>
<circle cx="128" cy="968" r="2" fill="#003B73"/>
<circle cx="114" cy="830" r="2" fill="#003B73"/>
<circle cx="178" cy="968" r="2" fill="#003B73"/>
<circle cx="228" cy="968" r="2" fill="#003B73"/>
<circle cx="246" cy="899" r="2" fill="#003B73"/>
<circle cx="278" cy="968" r="2" fill="#003B73"/>
<circle cx="176" cy="554" r="2" fill="#003B73"/>
<circle cx="168" cy="623" r="2" fill="#003B73"/>
<circle cx="232" cy="761" r="2" fill="#003B73"/>
<circle cx="264" cy="830" r="2" fill="#003B73"/>
<circle cx="296" cy="899" r="2" fill="#003B73"/>
<circle cx="328" cy="968" r="2" fill="#003B73"/>
<circle cx="226" cy="554" r="2" fill="#003B73"/>
<circle cx="218" cy="623" r="2" fill="#003B73"/>
<circle cx="250" cy="692" r="2" fill="#003B73"/>
<circle cx="282" cy="761" r="2" fill="#003B73"/>
<circle cx="314" cy="830" r="2" fill="#003B73"/>
<circle cx="276" cy="554" r="2" fill="#003B73"/>
<circle cx="268" cy="623" r="2" fill="#003B73"/>
<circle cx="396" cy="899" r="2" fill="#003B73"/>
<circle cx="414" cy="830" r="2" fill="#003B73"/>
<circle cx="446" cy="899" r="2" fill="#003B73"/>
<circle cx="464" cy="830" r="2" fill="#003B73"/>
<circle cx="482" cy="761" r="2" fill="#003B73"/>
<circle cx="17" cy="784" r="2" fill="#003B73"/>
<circle cx="49" cy="853" r="2" fill="#003B73"/>
<circle cx="81" cy="922" r="2" fill="#003B73"/>
<circle cx="67" cy="784" r="2" fill="#003B73"/>
<circle cx="99" cy="853" r="2" fill="#003B73"/>
<circle cx="131" cy="922" r="2" fill="#003B73"/>
<circle cx="213" cy="991" r="2" fill="#003B73"/>
<circle cx="231" cy="922" r="2" fill="#003B73"/>
<circle cx="263" cy="991" r="2" fill="#003B73"/>
<circle cx="161" cy="577" r="2" fill="#003B73"/>
<circle cx="217" cy="784" r="2" fill="#003B73"/>
<circle cx="249" cy="853" r="2" fill="#003B73"/>
<circle cx="281" cy="922" r="2" fill="#003B73"/>
<circle cx="313" cy="991" r="2" fill="#003B73"/>
<circle cx="211" cy="577" r="2" fill="#003B73"/>
<circle cx="203" cy="646" r="2" fill="#003B73"/>
<circle cx="235" cy="715" r="2" fill="#003B73"/>
<circle cx="267" cy="784" r="2" fill="#003B73"/>
<circle cx="299" cy="853" r="2" fill="#003B73"/>
<circle cx="331" cy="922" r="2" fill="#003B73"/>
<circle cx="261" cy="577" r="2" fill="#003B73"/>
<circle cx="253" cy="646" r="2" fill="#003B73"/>
<circle cx="285" cy="715" r="2" fill="#003B73"/>
<circle cx="317" cy="784" r="2" fill="#003B73"/>
<circle cx="381" cy="922" r="2" fill="#003B73"/>
<circle cx="399" cy="853" r="2" fill="#003B73"/>
<circle cx="431" cy="922" r="2" fill="#003B73"/>
<circle cx="449" cy="853" r="2" fill="#003B73"/>
<circle cx="467" cy="784" r="2" fill="#003B73"/>
<circle cx="52" cy="816" r="2" fill="#003B73"/>
<circle cx="84" cy="885" r="2" fill="#003B73"/>
<circle cx="116" cy="954" r="2" fill="#003B73"/>
<circle cx="102" cy="816" r="2" fill="#003B73"/>
<circle cx="166" cy="954" r="2" fill="#003B73"/>
<circle cx="216" cy="954" r="2" fill="#003B73"/>
<circle cx="234" cy="885" r="2" fill="#003B73"/>
<circle cx="266" cy="954" r="2" fill="#003B73"/>
<circle cx="164" cy="540" r="2" fill="#003B73"/>
<circle cx="156" cy="609" r="2" fill="#003B73"/>
<circle cx="220" cy="747" r="2" fill="#003B73"/>
<circle cx="252" cy="816" r="2" fill="#003B73"/>
<circle cx="284" cy="885" r="2" fill="#003B73"/>
<circle cx="316" cy="954" r="2" fill="#003B73"/>
<circle cx="206" cy="609" r="2" fill="#003B73"/>
<circle cx="238" cy="678" r="2" fill="#003B73"/>
<circle cx="270" cy="747" r="2" fill="#003B73"/>
<circle cx="302" cy="816" r="2" fill="#003B73"/>
<circle cx="366" cy="954" r="2" fill="#003B73"/>
<circle cx="264" cy="540" r="2" fill="#003B73"/>
<circle cx="256" cy="609" r="2" fill="#003B73"/>
<circle cx="288" cy="678" r="2" fill="#003B73"/>
<circle cx="320" cy="747" r="2" fill="#003B73"/>
<circle cx="384" cy="885" r="2" fill="#003B73"/>
<circle cx="402" cy="816" r="2" fill="#003B73"/>
<circle cx="434" cy="885" r="2" fill="#003B73"/>
<circle cx="452" cy="816" r="2" fill="#003B73"/>
<circle cx="39" cy="770" r="2" fill="#003B73"/>
<circle cx="71" cy="839" r="2" fill="#003B73"/>
<circle cx="103" cy="908" r="2" fill="#003B73"/>
<circle cx="121" cy="839" r="2" fill="#003B73"/>
<circle cx="185" cy="977" r="2" fill="#003B73"/>
<circle cx="235" cy="977" r="2" fill="#003B73"/>
<circle cx="221" cy="839" r="2" fill="#003B73"/>
<circle cx="253" cy="908" r="2" fill="#003B73"/>
<circle cx="285" cy="977" r="2" fill="#003B73"/>
<circle cx="183" cy="563" r="2" fill="#003B73"/>
<circle cx="175" cy="632" r="2" fill="#003B73"/>
<circle cx="239" cy="770" r="2" fill="#003B73"/>
<circle cx="271" cy="839" r="2" fill="#003B73"/>
<circle cx="335" cy="977" r="2" fill="#003B73"/>
<circle cx="233" cy="563" r="2" fill="#003B73"/>
<circle cx="225" cy="632" r="2" fill="#003B73"/>
<circle cx="257" cy="701" r="2" fill="#003B73"/>
<circle cx="289" cy="770" r="2" fill="#003B73"/>
<circle cx="321" cy="839" r="2" fill="#003B73"/>
<circle cx="353" cy="908" r="2" fill="#003B73"/>
<circle cx="283" cy="563" r="2" fill="#003B73"/>
<circle cx="275" cy="632" r="2" fill="#003B73"/>
<circle cx="371" cy="839" r="2" fill="#003B73"/>
<circle cx="403" cy="908" r="2" fill="#003B73"/>
<circle cx="421" cy="839" r="2" fill="#003B73"/>
<circle cx="471" cy="839" r="2" fill="#003B73"/>
<circle cx="489" cy="770" r="2" fill="#003B73"/>
<circle cx="24" cy="793" r="2" fill="#003B73"/>
<circle cx="56" cy="862" r="2" fill="#003B73"/>
<circle cx="88" cy="931" r="2" fill="#003B73"/>
<circle cx="74" cy="793" r="2" fill="#003B73"/>
<circle cx="106" cy="862" r="2" fill="#003B73"/>
<circle cx="138" cy="931" r="2" fill="#003B73"/>
<circle cx="188" cy="931" r="2" fill="#003B73"/>
<circle cx="238" cy="931" r="2" fill="#003B73"/>
<circle cx="270" cy="1000" r="2" fill="#003B73"/>
<circle cx="176" cy="517" r="2" fill="#003B73"/>
<circle cx="168" cy="586" r="2" fill="#003B73"/>
<circle cx="224" cy="793" r="2" fill="#003B73"/>
<circle cx="256" cy="862" r="2" fill="#003B73"/>
<circle cx="288" cy="931" r="2" fill="#003B73"/>
<circle cx="218" cy="586" r="2" fill="#003B73"/>
<circle cx="210" cy="655" r="2" fill="#003B73"/>
<circle cx="242" cy="724" r="2" fill="#003B73"/>
<circle cx="274" cy="793" r="2" fill="#003B73"/>
<circle cx="306" cy="862" r="2" fill="#003B73"/>
<circle cx="338" cy="931" r="2" fill="#003B73"/>
<circle cx="268" cy="586" r="2" fill="#003B73"/>
<circle cx="260" cy="655" r="2" fill="#003B73"/>
<circle cx="292" cy="724" r="2" fill="#003B73"/>
<circle cx="324" cy="793" r="2" fill="#003B73"/>
<circle cx="388" cy="931" r="2" fill="#003B73"/>
<circle cx="406" cy="862" r="2" fill="#003B73"/>
<circle cx="424" cy="793" r="2" fill="#003B73"/>
<circle cx="456" cy="862" r="2" fill="#003B73"/>
<circle cx="474" cy="793" r="2" fill="#003B73"/>
<circle cx="29" cy="816" r="2" fill="#003B73"/>
<circle cx="61" cy="885" r="2" fill="#003B73"/>
<circle cx="79" cy="816" r="2" fill="#003B73"/>
<circle cx="111" cy="885" r="2" fill="#003B73"/>
<circle cx="143" cy="954" r="2" fill="#003B73"/>
<circle cx="193" cy="954" r="2" fill="#003B73"/>
<circle cx="243" cy="954" r="2" fill="#003B73"/>
<circle cx="229" cy="816" r="2" fill="#003B73"/>
<circle cx="261" cy="885" r="2" fill="#003B73"/>
<circle cx="293" cy="954" r="2" fill="#003B73"/>
<circle cx="191" cy="540" r="2" fill="#003B73"/>
<circle cx="183" cy="609" r="2" fill="#003B73"/>
<circle cx="215" cy="678" r="2" fill="#003B73"/>
<circle cx="247" cy="747" r="2" fill="#003B73"/>
<circle cx="279" cy="816" r="2" fill="#003B73"/>
<circle cx="311" cy="885" r="2" fill="#003B73"/>
<circle cx="343" cy="954" r="2" fill="#003B73"/>
<circle cx="241" cy="540" r="2" fill="#003B73"/>
<circle cx="233" cy="609" r="2" fill="#003B73"/>
<circle cx="265" cy="678" r="2" fill="#003B73"/>
<circle cx="297" cy="747" r="2" fill="#003B73"/>
<circle cx="329" cy="816" r="2" fill="#003B73"/>
<circle cx="393" cy="954" r="2" fill="#003B73"/>
<circle cx="283" cy="609" r="2" fill="#003B73"/>
<circle cx="411" cy="885" r="2" fill="#003B73"/>
<circle cx="429" cy="816" r="2" fill="#003B73"/>
<circle cx="479" cy="816" r="2" fill="#003B73"/>
<circle cx="16" cy="770" r="2" fill="#003B73"/>
<circle cx="48" cy="839" r="2" fill="#003B73"/>
<circle cx="80" cy="908" r="2" fill="#003B73"/>
<circle cx="98" cy="839" r="2" fill="#003B73"/>
<circle cx="130" cy="908" r="2" fill="#003B73"/>
<circle cx="162" cy="977" r="2" fill="#003B73"/>
<circle cx="212" cy="977" r="2" fill="#003B73"/>
<circle cx="262" cy="977" r="2" fill="#003B73"/>
<circle cx="160" cy="563" r="2" fill="#003B73"/>
<circle cx="216" cy="770" r="2" fill="#003B73"/>
<circle cx="248" cy="839" r="2" fill="#003B73"/>
<circle cx="280" cy="908" r="2" fill="#003B73"/>
<circle cx="312" cy="977" r="2" fill="#003B73"/>
<circle cx="202" cy="632" r="2" fill="#003B73"/>
<circle cx="234" cy="701" r="2" fill="#003B73"/>
<circle cx="266" cy="770" r="2" fill="#003B73"/>
<circle cx="298" cy="839" r="2" fill="#003B73"/>
<circle cx="330" cy="908" r="2" fill="#003B73"/>
<circle cx="260" cy="563" r="2" fill="#003B73"/>
<circle cx="252" cy="632" r="2" fill="#003B73"/>
<circle cx="284" cy="701" r="2" fill="#003B73"/>
<circle cx="316" cy="770" r="2" fill="#003B73"/>
<circle cx="380" cy="908" r="2" fill="#003B73"/>
<circle cx="398" cy="839" r="2" fill="#003B73"/>
<circle cx="430" cy="908" r="2" fill="#003B73"/>
<circle cx="448" cy="839" r="2" fill="#003B73"/>
<circle cx="466" cy="770" r="2" fill="#003B73"/>
<circle cx="33" cy="862" r="2" fill="#003B73"/>
<circle cx="51" cy="793" r="2" fill="#003B73"/>
<circle cx="83" cy="862" r="2" fill="#003B73"/>
<circle cx="115" cy="931" r="2" fill="#003B73"/>
<circle cx="165" cy="931" r="2" fill="#003B73"/>
<circle cx="215" cy="931" r="2" fill="#003B73"/>
<circle cx="247" cy="1000" r="2" fill="#003B73"/>
<circle cx="153" cy="517" r="2" fill="#003B73"/>
<circle cx="233" cy="862" r="2" fill="#003B73"/>
<circle cx="265" cy="931" r="2" fill="#003B73"/>
<circle cx="203" cy="517" r="2" fill="#003B73"/>
<circle cx="195" cy="586" r="2" fill="#003B73"/>
<circle cx="187" cy="655" r="2" fill="#003B73"/>
<circle cx="219" cy="724" r="2" fill="#003B73"/>
<circle cx="251" cy="793" r="2" fill="#003B73"/>
<circle cx="283" cy="862" r="2" fill="#003B73"/>
<circle cx="315" cy="931" r="2" fill="#003B73"/>
<circle cx="245" cy="586" r="2" fill="#003B73"/>
<circle cx="237" cy="655" r="2" fill="#003B73"/>
<circle cx="269" cy="724" r="2" fill="#003B73"/>
<circle cx="333" cy="862" r="2" fill="#003B73"/>
<circle cx="365" cy="931" r="2" fill="#003B73"/>
<circle cx="383" cy="862" r="2" fill="#003B73"/>
<circle cx="415" cy="931" r="2" fill="#003B73"/>
<circle cx="433" cy="862" r="2" fill="#003B73"/>
<circle cx="451" cy="793" r="2" fill="#003B73"/>
<circle cx="12" cy="255" r="2" fill="#003B73"/>
<circle cx="4" cy="324" r="2" fill="#003B73"/>
<circle cx="4" cy="669" r="2" fill="#003B73"/>
<circle cx="62" cy="255" r="2" fill="#003B73"/>
<circle cx="54" cy="324" r="2" fill="#003B73"/>
<circle cx="46" cy="393" r="2" fill="#003B73"/>
<circle cx="38" cy="462" r="2" fill="#003B73"/>
<circle cx="30" cy="531" r="2" fill="#003B73"/>
<circle cx="22" cy="600" r="2" fill="#003B73"/>
<circle cx="54" cy="669" r="2" fill="#003B73"/>
<circle cx="72" cy="600" r="2" fill="#003B73"/>
<circle cx="212" cy="255" r="2" fill="#003B73"/>
<circle cx="262" cy="255" r="2" fill="#003B73"/>
<circle cx="254" cy="324" r="2" fill="#003B73"/>
<circle cx="462" cy="255" r="2" fill="#003B73"/>
<circle cx="454" cy="324" r="2" fill="#003B73"/>
<circle cx="446" cy="393" r="2" fill="#003B73"/>
<circle cx="438" cy="462" r="2" fill="#003B73"/>
<circle cx="430" cy="531" r="2" fill="#003B73"/>
<circle cx="454" cy="669" r="2" fill="#003B73"/>
<circle cx="496" cy="393" r="2" fill="#003B73"/>
<circle cx="488" cy="462" r="2" fill="#003B73"/>
<circle cx="480" cy="531" r="2" fill="#003B73"/>
<circle cx="472" cy="600" r="2" fill="#003B73"/>
<circle cx="31" cy="278" r="2" fill="#003B73"/>
<circle cx="23" cy="347" r="2" fill="#003B73"/>
<circle cx="15" cy="416" r="2" fill="#003B73"/>
<circle cx="7" cy="485" r="2" fill="#003B73"/>
<circle cx="23" cy="692" r="2" fill="#003B73"/>
<circle cx="73" cy="347" r="2" fill="#003B73"/>
<circle cx="65" cy="416" r="2" fill="#003B73"/>
<circle cx="57" cy="485" r="2" fill="#003B73"/>
<circle cx="49" cy="554" r="2" fill="#003B73"/>
<circle cx="41" cy="623" r="2" fill="#003B73"/>
<circle cx="73" cy="692" r="2" fill="#003B73"/>
<circle cx="231" cy="278" r="2" fill="#003B73"/>
<circle cx="281" cy="278" r="2" fill="#003B73"/>
<circle cx="431" cy="278" r="2" fill="#003B73"/>
<circle cx="481" cy="278" r="2" fill="#003B73"/>
<circle cx="473" cy="347" r="2" fill="#003B73"/>
<circle cx="465" cy="416" r="2" fill="#003B73"/>
<circle cx="457" cy="485" r="2" fill="#003B73"/>
<circle cx="449" cy="554" r="2" fill="#003B73"/>
<circle cx="441" cy="623" r="2" fill="#003B73"/>
<circle cx="473" cy="692" r="2" fill="#003B73"/>
<circle cx="117" cy="163" r="2" fill="#003B73"/>
<circle cx="167" cy="163" r="2" fill="#003B73"/>
<circle cx="317" cy="163" r="2" fill="#003B73"/>
<circle cx="367" cy="163" r="2" fill="#003B73"/>
<circle cx="16" cy="232" r="2" fill="#003B73"/>
<circle cx="66" cy="232" r="2" fill="#003B73"/>
<circle cx="216" cy="232" r="2" fill="#003B73"/>
<circle cx="266" cy="232" r="2" fill="#003B73"/>
<circle cx="316" cy="232" r="2" fill="#003B73"/>
<circle cx="416" cy="232" r="2" fill="#003B73"/>
<circle cx="466" cy="232" r="2" fill="#003B73"/>
<circle cx="66" cy="209" r="2" fill="#003B73"/>
<circle cx="116" cy="209" r="2" fill="#003B73"/>
<circle cx="166" cy="209" r="2" fill="#003B73"/>
<circle cx="216" cy="209" r="2" fill="#003B73"/>
<circle cx="266" cy="209" r="2" fill="#003B73"/>
<circle cx="316" cy="209" r="2" fill="#003B73"/>
<circle cx="366" cy="209" r="2" fill="#003B73"/>
<circle cx="416" cy="209" r="2" fill="#003B73"/>
<circle cx="466" cy="209" r="2" fill="#003B73"/>
<circle cx="16" cy="301" r="2" fill="#003B73"/>
<circle cx="8" cy="370" r="2" fill="#003B73"/>
<circle cx="8" cy="715" r="2" fill="#003B73"/>
<circle cx="66" cy="301" r="2" fill="#003B73"/>
<circle cx="58" cy="370" r="2" fill="#003B73"/>
<circle cx="50" cy="439" r="2" fill="#003B73"/>
<circle cx="42" cy="508" r="2" fill="#003B73"/>
<circle cx="34" cy="577" r="2" fill="#003B73"/>
<circle cx="26" cy="646" r="2" fill="#003B73"/>
<circle cx="58" cy="715" r="2" fill="#003B73"/>
<circle cx="216" cy="301" r="2" fill="#003B73"/>
<circle cx="266" cy="301" r="2" fill="#003B73"/>
<circle cx="466" cy="301" r="2" fill="#003B73"/>
<circle cx="458" cy="370" r="2" fill="#003B73"/>
<circle cx="450" cy="439" r="2" fill="#003B73"/>
<circle cx="442" cy="508" r="2" fill="#003B73"/>
<circle cx="434" cy="577" r="2" fill="#003B73"/>
<circle cx="458" cy="715" r="2" fill="#003B73"/>
<circle cx="492" cy="508" r="2" fill="#003B73"/>
<circle cx="484" cy="577" r="2" fill="#003B73"/>
<circle cx="476" cy="646" r="2" fill="#003B73"/>
<circle cx="52" cy="186" r="2" fill="#003B73"/>
<circle cx="102" cy="186" r="2" fill="#003B73"/>
<circle cx="152" cy="186" r="2" fill="#003B73"/>
<circle cx="202" cy="186" r="2" fill="#003B73"/>
<circle cx="302" cy="186" r="2" fill="#003B73"/>
<circle cx="352" cy="186" r="2" fill="#003B73"/>
<circle cx="402" cy="186" r="2" fill="#003B73"/>
<circle cx="39" cy="255" r="2" fill="#003B73"/>
<circle cx="31" cy="324" r="2" fill="#003B73"/>
<circle cx="23" cy="393" r="2" fill="#003B73"/>
<circle cx="15" cy="462" r="2" fill="#003B73"/>
<circle cx="7" cy="531" r="2" fill="#003B73"/>
<circle cx="31" cy="669" r="2" fill="#003B73"/>
<circle cx="73" cy="393" r="2" fill="#003B73"/>
<circle cx="65" cy="462" r="2" fill="#003B73"/>
<circle cx="57" cy="531" r="2" fill="#003B73"/>
<circle cx="49" cy="600" r="2" fill="#003B73"/>
<circle cx="239" cy="255" r="2" fill="#003B73"/>
<circle cx="231" cy="324" r="2" fill="#003B73"/>
<circle cx="289" cy="255" r="2" fill="#003B73"/>
<circle cx="281" cy="324" r="2" fill="#003B73"/>
<circle cx="439" cy="255" r="2" fill="#003B73"/>
<circle cx="431" cy="324" r="2" fill="#003B73"/>
<circle cx="431" cy="669" r="2" fill="#003B73"/>
<circle cx="489" cy="255" r="2" fill="#003B73"/>
<circle cx="481" cy="324" r="2" fill="#003B73"/>
<circle cx="473" cy="393" r="2" fill="#003B73"/>
<circle cx="465" cy="462" r="2" fill="#003B73"/>
<circle cx="457" cy="531" r="2" fill="#003B73"/>
<circle cx="449" cy="600" r="2" fill="#003B73"/>
<circle cx="481" cy="669" r="2" fill="#003B73"/>
<circle cx="8" cy="278" r="2" fill="#003B73"/>
<circle cx="58" cy="278" r="2" fill="#003B73"/>
<circle cx="50" cy="347" r="2" fill="#003B73"/>
<circle cx="42" cy="416" r="2" fill="#003B73"/>
<circle cx="34" cy="485" r="2" fill="#003B73"/>
<circle cx="26" cy="554" r="2" fill="#003B73"/>
<circle cx="18" cy="623" r="2" fill="#003B73"/>
<circle cx="50" cy="692" r="2" fill="#003B73"/>
<circle cx="68" cy="623" r="2" fill="#003B73"/>
<circle cx="258" cy="278" r="2" fill="#003B73"/>
<circle cx="458" cy="278" r="2" fill="#003B73"/>
<circle cx="450" cy="347" r="2" fill="#003B73"/>
<circle cx="442" cy="416" r="2" fill="#003B73"/>
<circle cx="434" cy="485" r="2" fill="#003B73"/>
<circle cx="426" cy="554" r="2" fill="#003B73"/>
<circle cx="450" cy="692" r="2" fill="#003B73"/>
<circle cx="492" cy="416" r="2" fill="#003B73"/>
<circle cx="484" cy="485" r="2" fill="#003B73"/>
<circle cx="476" cy="554" r="2" fill="#003B73"/>
<circle cx="468" cy="623" r="2" fill="#003B73"/>
<circle cx="94" cy="163" r="2" fill="#003B73"/>
<circle cx="144" cy="163" r="2" fill="#003B73"/>
<circle cx="344" cy="163" r="2" fill="#003B73"/>
<circle cx="394" cy="163" r="2" fill="#003B73"/>
<circle cx="43" cy="232" r="2" fill="#003B73"/>
<circle cx="93" cy="232" r="2" fill="#003B73"/>
<circle cx="193" cy="232" r="2" fill="#003B73"/>
<circle cx="243" cy="232" r="2" fill="#003B73"/>
<circle cx="293" cy="232" r="2" fill="#003B73"/>
<circle cx="393" cy="232" r="2" fill="#003B73"/>
<circle cx="443" cy="232" r="2" fill="#003B73"/>
<circle cx="43" cy="209" r="2" fill="#003B73"/>
<circle cx="93" cy="209" r="2" fill="#003B73"/>
<circle cx="143" cy="209" r="2" fill="#003B73"/>
<circle cx="193" cy="209" r="2" fill="#003B73"/>
<circle cx="243" cy="209" r="2" fill="#003B73"/>
<circle cx="293" cy="209" r="2" fill="#003B73"/>
<circle cx="343" cy="209" r="2" fill="#003B73"/>
<circle cx="393" cy="209" r="2" fill="#003B73"/>
<circle cx="443" cy="209" r="2" fill="#003B73"/>
<circle cx="43" cy="301" r="2" fill="#003B73"/>
<circle cx="35" cy="370" r="2" fill="#003B73"/>
<circle cx="27" cy="439" r="2" fill="#003B73"/>
<circle cx="19" cy="508" r="2" fill="#003B73"/>
<circle cx="11" cy="577" r="2" fill="#003B73"/>
<circle cx="3" cy="646" r="2" fill="#003B73"/>
<circle cx="35" cy="715" r="2" fill="#003B73"/>
<circle cx="69" cy="508" r="2" fill="#003B73"/>
<circle cx="61" cy="577" r="2" fill="#003B73"/>
<circle cx="53" cy="646" r="2" fill="#003B73"/>
<circle cx="243" cy="301" r="2" fill="#003B73"/>
<circle cx="443" cy="301" r="2" fill="#003B73"/>
<circle cx="435" cy="370" r="2" fill="#003B73"/>
<circle cx="427" cy="439" r="2" fill="#003B73"/>
<circle cx="435" cy="715" r="2" fill="#003B73"/>
<circle cx="493" cy="301" r="2" fill="#003B73"/>
<circle cx="485" cy="370" r="2" fill="#003B73"/>
<circle cx="477" cy="439" r="2" fill="#003B73"/>
<circle cx="469" cy="508" r="2" fill="#003B73"/>
<circle cx="461" cy="577" r="2" fill="#003B73"/>
<circle cx="453" cy="646" r="2" fill="#003B73"/>
<circle cx="485" cy="715" r="2" fill="#003B73"/>
<circle cx="79" cy="186" r="2" fill="#003B73"/>
<circle cx="129" cy="186" r="2" fill="#003B73"/>
<circle cx="179" cy="186" r="2" fill="#003B73"/>
<circle cx="229" cy="186" r="2" fill="#003B73"/>
<circle cx="279" cy="186" r="2" fill="#003B73"/>
<circle cx="329" cy="186" r="2" fill="#003B73"/>
<circle cx="379" cy="186" r="2" fill="#003B73"/>
<circle cx="429" cy="186" r="2" fill="#003B73"/>
<circle cx="46" cy="264" r="2" fill="#003B73"/>
<circle cx="38" cy="333" r="2" fill="#003B73"/>
<circle cx="30" cy="402" r="2" fill="#003B73"/>
<circle cx="22" cy="471" r="2" fill="#003B73"/>
<circle cx="14" cy="540" r="2" fill="#003B73"/>
<circle cx="6" cy="609" r="2" fill="#003B73"/>
<circle cx="38" cy="678" r="2" fill="#003B73"/>
<circle cx="72" cy="471" r="2" fill="#003B73"/>
<circle cx="64" cy="540" r="2" fill="#003B73"/>
<circle cx="56" cy="609" r="2" fill="#003B73"/>
<circle cx="246" cy="264" r="2" fill="#003B73"/>
<circle cx="238" cy="333" r="2" fill="#003B73"/>
<circle cx="446" cy="264" r="2" fill="#003B73"/>
<circle cx="438" cy="333" r="2" fill="#003B73"/>
<circle cx="430" cy="402" r="2" fill="#003B73"/>
<circle cx="438" cy="678" r="2" fill="#003B73"/>
<circle cx="488" cy="333" r="2" fill="#003B73"/>
<circle cx="480" cy="402" r="2" fill="#003B73"/>
<circle cx="472" cy="471" r="2" fill="#003B73"/>
<circle cx="464" cy="540" r="2" fill="#003B73"/>
<circle cx="456" cy="609" r="2" fill="#003B73"/>
<circle cx="488" cy="678" r="2" fill="#003B73"/>
<circle cx="15" cy="287" r="2" fill="#003B73"/>
<circle cx="7" cy="356" r="2" fill="#003B73"/>
<circle cx="7" cy="701" r="2" fill="#003B73"/>
<circle cx="65" cy="287" r="2" fill="#003B73"/>
<circle cx="57" cy="356" r="2" fill="#003B73"/>
<circle cx="49" cy="425" r="2" fill="#003B73"/>
<circle cx="41" cy="494" r="2" fill="#003B73"/>
<circle cx="33" cy="563" r="2" fill="#003B73"/>
<circle cx="25" cy="632" r="2" fill="#003B73"/>
<circle cx="57" cy="701" r="2" fill="#003B73"/>
<circle cx="75" cy="632" r="2" fill="#003B73"/>
<circle cx="215" cy="287" r="2" fill="#003B73"/>
<circle cx="265" cy="287" r="2" fill="#003B73"/>
<circle cx="465" cy="287" r="2" fill="#003B73"/>
<circle cx="457" cy="356" r="2" fill="#003B73"/>
<circle cx="449" cy="425" r="2" fill="#003B73"/>
<circle cx="441" cy="494" r="2" fill="#003B73"/>
<circle cx="433" cy="563" r="2" fill="#003B73"/>
<circle cx="425" cy="632" r="2" fill="#003B73"/>
<circle cx="457" cy="701" r="2" fill="#003B73"/>
<circle cx="491" cy="494" r="2" fill="#003B73"/>
<circle cx="483" cy="563" r="2" fill="#003B73"/>
<circle cx="475" cy="632" r="2" fill="#003B73"/>
<circle cx="101" cy="172" r="2" fill="#003B73"/>
<circle cx="151" cy="172" r="2" fill="#003B73"/>
<circle cx="201" cy="172" r="2" fill="#003B73"/>
<circle cx="301" cy="172" r="2" fill="#003B73"/>
<circle cx="351" cy="172" r="2" fill="#003B73"/>
<circle cx="401" cy="172" r="2" fill="#003B73"/>
<circle cx="50" cy="241" r="2" fill="#003B73"/>
<circle cx="200" cy="241" r="2" fill="#003B73"/>
<circle cx="250" cy="241" r="2" fill="#003B73"/>
<circle cx="300" cy="241" r="2" fill="#003B73"/>
<circle cx="450" cy="241" r="2" fill="#003B73"/>
<circle cx="50" cy="218" r="2" fill="#003B73"/>
<circle cx="100" cy="218" r="2" fill="#003B73"/>
<circle cx="150" cy="218" r="2" fill="#003B73"/>
<circle cx="200" cy="218" r="2" fill="#003B73"/>
<circle cx="250" cy="218" r="2" fill="#003B73"/>
<circle cx="300" cy="218" r="2" fill="#003B73"/>
<circle cx="350" cy="218" r="2" fill="#003B73"/>
<circle cx="400" cy="218" r="2" fill="#003B73"/>
<circle cx="450" cy="218" r="2" fill="#003B73"/>
<circle cx="50" cy="310" r="2" fill="#003B73"/>
<circle cx="42" cy="379" r="2" fill="#003B73"/>
<circle cx="34" cy="448" r="2" fill="#003B73"/>
<circle cx="26" cy="517" r="2" fill="#003B73"/>
<circle cx="18" cy="586" r="2" fill="#003B73"/>
<circle cx="10" cy="655" r="2" fill="#003B73"/>
<circle cx="42" cy="724" r="2" fill="#003B73"/>
<circle cx="68" cy="586" r="2" fill="#003B73"/>
<circle cx="60" cy="655" r="2" fill="#003B73"/>
<circle cx="250" cy="310" r="2" fill="#003B73"/>
<circle cx="450" cy="310" r="2" fill="#003B73"/>
<circle cx="442" cy="379" r="2" fill="#003B73"/>
<circle cx="434" cy="448" r="2" fill="#003B73"/>
<circle cx="426" cy="517" r="2" fill="#003B73"/>
<circle cx="442" cy="724" r="2" fill="#003B73"/>
<circle cx="492" cy="379" r="2" fill="#003B73"/>
<circle cx="484" cy="448" r="2" fill="#003B73"/>
<circle cx="476" cy="517" r="2" fill="#003B73"/>
<circle cx="468" cy="586" r="2" fill="#003B73"/>
<circle cx="460" cy="655" r="2" fill="#003B73"/>
<circle cx="492" cy="724" r="2" fill="#003B73"/>
<circle cx="86" cy="195" r="2" fill="#003B73"/>
<circle cx="136" cy="195" r="2" fill="#003B73"/>
<circle cx="186" cy="195" r="2" fill="#003B73"/>
<circle cx="236" cy="195" r="2" fill="#003B73"/>
<circle cx="286" cy="195" r="2" fill="#003B73"/>
<circle cx="336" cy="195" r="2" fill="#003B73"/>
<circle cx="386" cy="195" r="2" fill="#003B73"/>
<circle cx="436" cy="195" r="2" fill="#003B73"/>
<circle cx="23" cy="264" r="2" fill="#003B73"/>
<circle cx="15" cy="333" r="2" fill="#003B73"/>
<circle cx="7" cy="402" r="2" fill="#003B73"/>
<circle cx="15" cy="678" r="2" fill="#003B73"/>
<circle cx="73" cy="264" r="2" fill="#003B73"/>
<circle cx="65" cy="333" r="2" fill="#003B73"/>
<circle cx="57" cy="402" r="2" fill="#003B73"/>
<circle cx="49" cy="471" r="2" fill="#003B73"/>
<circle cx="41" cy="540" r="2" fill="#003B73"/>
<circle cx="33" cy="609" r="2" fill="#003B73"/>
<circle cx="65" cy="678" r="2" fill="#003B73"/>
<circle cx="223" cy="264" r="2" fill="#003B73"/>
<circle cx="215" cy="333" r="2" fill="#003B73"/>
<circle cx="273" cy="264" r="2" fill="#003B73"/>
<circle cx="265" cy="333" r="2" fill="#003B73"/>
<circle cx="423" cy="264" r="2" fill="#003B73"/>
<circle cx="473" cy="264" r="2" fill="#003B73"/>
<circle cx="465" cy="333" r="2" fill="#003B73"/>
<circle cx="457" cy="402" r="2" fill="#003B73"/>
<circle cx="449" cy="471" r="2" fill="#003B73"/>
<circle cx="441" cy="540" r="2" fill="#003B73"/>
<circle cx="433" cy="609" r="2" fill="#003B73"/>
<circle cx="465" cy="678" r="2" fill="#003B73"/>
<circle cx="491" cy="540" r="2" fill="#003B73"/>
<circle cx="483" cy="609" r="2" fill="#003B73"/>
<circle cx="42" cy="287" r="2" fill="#003B73"/>
<circle cx="34" cy="356" r="2" fill="#003B73"/>
<circle cx="26" cy="425" r="2" fill="#003B73"/>
<circle cx="18" cy="494" r="2" fill="#003B73"/>
<circle cx="10" cy="563" r="2" fill="#003B73"/>
<circle cx="2" cy="632" r="2" fill="#003B73"/>
<circle cx="34" cy="701" r="2" fill="#003B73"/>
<circle cx="68" cy="494" r="2" fill="#003B73"/>
<circle cx="60" cy="563" r="2" fill="#003B73"/>
<circle cx="52" cy="632" r="2" fill="#003B73"/>
<circle cx="242" cy="287" r="2" fill="#003B73"/>
<circle cx="442" cy="287" r="2" fill="#003B73"/>
<circle cx="434" cy="356" r="2" fill="#003B73"/>
<circle cx="426" cy="425" r="2" fill="#003B73"/>
<circle cx="434" cy="701" r="2" fill="#003B73"/>
<circle cx="492" cy="287" r="2" fill="#003B73"/>
<circle cx="484" cy="356" r="2" fill="#003B73"/>
<circle cx="476" cy="425" r="2" fill="#003B73"/>
<circle cx="468" cy="494" r="2" fill="#003B73"/>
<circle cx="460" cy="563" r="2" fill="#003B73"/>
<circle cx="452" cy="632" r="2" fill="#003B73"/>
<circle cx="484" cy="701" r="2" fill="#003B73"/>
<circle cx="78" cy="172" r="2" fill="#003B73"/>
<circle cx="128" cy="172" r="2" fill="#003B73"/>
<circle cx="178" cy="172" r="2" fill="#003B73"/>
<circle cx="328" cy="172" r="2" fill="#003B73"/>
<circle cx="378" cy="172" r="2" fill="#003B73"/>
<circle cx="27" cy="241" r="2" fill="#003B73"/>
<circle cx="77" cy="241" r="2" fill="#003B73"/>
<circle cx="227" cy="241" r="2" fill="#003B73"/>
<circle cx="277" cy="241" r="2" fill="#003B73"/>
<circle cx="427" cy="241" r="2" fill="#003B73"/>
<circle cx="477" cy="241" r="2" fill="#003B73"/>
<circle cx="27" cy="218" r="2" fill="#003B73"/>
<circle cx="77" cy="218" r="2" fill="#003B73"/>
<circle cx="127" cy="218" r="2" fill="#003B73"/>
<circle cx="177" cy="218" r="2" fill="#003B73"/>
<circle cx="227" cy="218" r="2" fill="#003B73"/>
<circle cx="277" cy="218" r="2" fill="#003B73"/>
<circle cx="327" cy="218" r="2" fill="#003B73"/>
<circle cx="377" cy="218" r="2" fill="#003B73"/>
<circle cx="427" cy="218" r="2" fill="#003B73"/>
<circle cx="27" cy="310" r="2" fill="#003B73"/>
<circle cx="19" cy="379" r="2" fill="#003B73"/>
<circle cx="11" cy="448" r="2" fill="#003B73"/>
<circle cx="3" cy="517" r="2" fill="#003B73"/>
<circle cx="19" cy="724" r="2" fill="#003B73"/>
<circle cx="69" cy="379" r="2" fill="#003B73"/>
<circle cx="61" cy="448" r="2" fill="#003B73"/>
<circle cx="53" cy="517" r="2" fill="#003B73"/>
<circle cx="45" cy="586" r="2" fill="#003B73"/>
<circle cx="37" cy="655" r="2" fill="#003B73"/>
<circle cx="69" cy="724" r="2" fill="#003B73"/>
<circle cx="227" cy="310" r="2" fill="#003B73"/>
<circle cx="277" cy="310" r="2" fill="#003B73"/>
<circle cx="427" cy="310" r="2" fill="#003B73"/>
<circle cx="477" cy="310" r="2" fill="#003B73"/>
<circle cx="469" cy="379" r="2" fill="#003B73"/>
<circle cx="461" cy="448" r="2" fill="#003B73"/>
<circle cx="453" cy="517" r="2" fill="#003B73"/>
<circle cx="445" cy="586" r="2" fill="#003B73"/>
<circle cx="437" cy="655" r="2" fill="#003B73"/>
<circle cx="469" cy="724" r="2" fill="#003B73"/>
<circle cx="495" cy="586" r="2" fill="#003B73"/>
<circle cx="487" cy="655" r="2" fill="#003B73"/>
<circle cx="63" cy="195" r="2" fill="#003B73"/>
<circle cx="113" cy="195" r="2" fill="#003B73"/>
<circle cx="163" cy="195" r="2" fill="#003B73"/>
<circle cx="213" cy="195" r="2" fill="#003B73"/>
<circle cx="263" cy="195" r="2" fill="#003B73"/>
<circle cx="313" cy="195" r="2" fill="#003B73"/>
<circle cx="363" cy="195" r="2" fill="#003B73"/>
<circle cx="413" cy="195" r="2" fill="#003B73"/>
<circle cx="40" cy="48" r="2" fill="#003B73"/>
<circle cx="86" cy="48" r="2" fill="#003B73"/>
<circle cx="132" cy="48" r="2" fill="#003B73"/>
<circle cx="178" cy="48" r="2" fill="#003B73"/>
<circle cx="224" cy="48" r="2" fill="#003B73"/>
<circle cx="270" cy="48" r="2" fill="#003B73"/>
<circle cx="316" cy="48" r="2" fill="#003B73"/>
<circle cx="362" cy="48" r="2" fill="#003B73"/>
<circle cx="408" cy="48" r="2" fill="#003B73"/>
<circle cx="454" cy="48" r="2" fill="#003B73"/>
<circle cx="59" cy="71" r="2" fill="#003B73"/>
<circle cx="105" cy="71" r="2" fill="#003B73"/>
<circle cx="151" cy="71" r="2" fill="#003B73"/>
<circle cx="197" cy="71" r="2" fill="#003B73"/>
<circle cx="243" cy="71" r="2" fill="#003B73"/>
<circle cx="289" cy="71" r="2" fill="#003B73"/>
<circle cx="335" cy="71" r="2" fill="#003B73"/>
<circle cx="381" cy="71" r="2" fill="#003B73"/>
<circle cx="427" cy="71" r="2" fill="#003B73"/>
<circle cx="13" cy="2" r="2" fill="#003B73"/>
<circle cx="59" cy="2" r="2" fill="#003B73"/>
<circle cx="151" cy="2" r="2" fill="#003B73"/>
<circle cx="243" cy="2" r="2" fill="#003B73"/>
<circle cx="335" cy="2" r="2" fill="#003B73"/>
<circle cx="427" cy="2" r="2" fill="#003B73"/>
<circle cx="473" cy="2" r="2" fill="#003B73"/>
<circle cx="44" cy="94" r="2" fill="#003B73"/>
<circle cx="90" cy="94" r="2" fill="#003B73"/>
<circle cx="136" cy="94" r="2" fill="#003B73"/>
<circle cx="182" cy="94" r="2" fill="#003B73"/>
<circle cx="228" cy="94" r="2" fill="#003B73"/>
<circle cx="274" cy="94" r="2" fill="#003B73"/>
<circle cx="320" cy="94" r="2" fill="#003B73"/>
<circle cx="366" cy="94" r="2" fill="#003B73"/>
<circle cx="412" cy="94" r="2" fill="#003B73"/>
<circle cx="44" cy="25" r="2" fill="#003B73"/>
<circle cx="90" cy="25" r="2" fill="#003B73"/>
<circle cx="136" cy="25" r="2" fill="#003B73"/>
<circle cx="182" cy="25" r="2" fill="#003B73"/>
<circle cx="228" cy="25" r="2" fill="#003B73"/>
<circle cx="274" cy="25" r="2" fill="#003B73"/>
<circle cx="320" cy="25" r="2" fill="#003B73"/>
<circle cx="366" cy="25" r="2" fill="#003B73"/>
<circle cx="412" cy="25" r="2" fill="#003B73"/>
<circle cx="458" cy="25" r="2" fill="#003B73"/>
<circle cx="63" cy="48" r="2" fill="#003B73"/>
<circle cx="109" cy="48" r="2" fill="#003B73"/>
<circle cx="155" cy="48" r="2" fill="#003B73"/>
<circle cx="201" cy="48" r="2" fill="#003B73"/>
<circle cx="247" cy="48" r="2" fill="#003B73"/>
<circle cx="293" cy="48" r="2" fill="#003B73"/>
<circle cx="339" cy="48" r="2" fill="#003B73"/>
<circle cx="385" cy="48" r="2" fill="#003B73"/>
<circle cx="431" cy="48" r="2" fill="#003B73"/>
<circle cx="477" cy="48" r="2" fill="#003B73"/>
<circle cx="36" cy="71" r="2" fill="#003B73"/>
<circle cx="82" cy="71" r="2" fill="#003B73"/>
<circle cx="128" cy="71" r="2" fill="#003B73"/>
<circle cx="174" cy="71" r="2" fill="#003B73"/>
<circle cx="220" cy="71" r="2" fill="#003B73"/>
<circle cx="266" cy="71" r="2" fill="#003B73"/>
<circle cx="312" cy="71" r="2" fill="#003B73"/>
<circle cx="358" cy="71" r="2" fill="#003B73"/>
<circle cx="404" cy="71" r="2" fill="#003B73"/>
<circle cx="450" cy="71" r="2" fill="#003B73"/>
<circle cx="36" cy="2" r="2" fill="#003B73"/>
<circle cx="82" cy="2" r="2" fill="#003B73"/>
<circle cx="128" cy="2" r="2" fill="#003B73"/>
<circle cx="174" cy="2" r="2" fill="#003B73"/>
<circle cx="220" cy="2" r="2" fill="#003B73"/>
<circle cx="266" cy="2" r="2" fill="#003B73"/>
<circle cx="312" cy="2" r="2" fill="#003B73"/>
<circle cx="358" cy="2" r="2" fill="#003B73"/>
<circle cx="450" cy="2" r="2" fill="#003B73"/>
<circle cx="67" cy="94" r="2" fill="#003B73"/>
<circle cx="113" cy="94" r="2" fill="#003B73"/>
<circle cx="159" cy="94" r="2" fill="#003B73"/>
<circle cx="205" cy="94" r="2" fill="#003B73"/>
<circle cx="251" cy="94" r="2" fill="#003B73"/>
<circle cx="297" cy="94" r="2" fill="#003B73"/>
<circle cx="343" cy="94" r="2" fill="#003B73"/>
<circle cx="389" cy="94" r="2" fill="#003B73"/>
<circle cx="435" cy="94" r="2" fill="#003B73"/>
<circle cx="21" cy="25" r="2" fill="#003B73"/>
<circle cx="67" cy="25" r="2" fill="#003B73"/>
<circle cx="159" cy="25" r="2" fill="#003B73"/>
<circle cx="251" cy="25" r="2" fill="#003B73"/>
<circle cx="343" cy="25" r="2" fill="#003B73"/>
<circle cx="435" cy="25" r="2" fill="#003B73"/>
<circle cx="481" cy="25" r="2" fill="#003B73"/>
<circle cx="28" cy="57" r="2" fill="#003B73"/>
<circle cx="74" cy="57" r="2" fill="#003B73"/>
<circle cx="120" cy="57" r="2" fill="#003B73"/>
<circle cx="166" cy="57" r="2" fill="#003B73"/>
<circle cx="212" cy="57" r="2" fill="#003B73"/>
<circle cx="258" cy="57" r="2" fill="#003B73"/>
<circle cx="304" cy="57" r="2" fill="#003B73"/>
<circle cx="350" cy="57" r="2" fill="#003B73"/>
<circle cx="396" cy="57" r="2" fill="#003B73"/>
<circle cx="442" cy="57" r="2" fill="#003B73"/>
<circle cx="47" cy="80" r="2" fill="#003B73"/>
<circle cx="93" cy="80" r="2" fill="#003B73"/>
<circle cx="139" cy="80" r="2" fill="#003B73"/>
<circle cx="185" cy="80" r="2" fill="#003B73"/>
<circle cx="231" cy="80" r="2" fill="#003B73"/>
<circle cx="277" cy="80" r="2" fill="#003B73"/>
<circle cx="323" cy="80" r="2" fill="#003B73"/>
<circle cx="369" cy="80" r="2" fill="#003B73"/>
<circle cx="415" cy="80" r="2" fill="#003B73"/>
<circle cx="461" cy="80" r="2" fill="#003B73"/>
<circle cx="47" cy="11" r="2" fill="#003B73"/>
<circle cx="139" cy="11" r="2" fill="#003B73"/>
<circle cx="185" cy="11" r="2" fill="#003B73"/>
<circle cx="231" cy="11" r="2" fill="#003B73"/>
<circle cx="277" cy="11" r="2" fill="#003B73"/>
<circle cx="323" cy="11" r="2" fill="#003B73"/>
<circle cx="369" cy="11" r="2" fill="#003B73"/>
<circle cx="415" cy="11" r="2" fill="#003B73"/>
<circle cx="461" cy="11" r="2" fill="#003B73"/>
<circle cx="78" cy="103" r="2" fill="#003B73"/>
<circle cx="124" cy="103" r="2" fill="#003B73"/>
<circle cx="170" cy="103" r="2" fill="#003B73"/>
<circle cx="216" cy="103" r="2" fill="#003B73"/>
<circle cx="262" cy="103" r="2" fill="#003B73"/>
<circle cx="308" cy="103" r="2" fill="#003B73"/>
<circle cx="354" cy="103" r="2" fill="#003B73"/>
<circle cx="400" cy="103" r="2" fill="#003B73"/>
<circle cx="446" cy="103" r="2" fill="#003B73"/>
<circle cx="32" cy="34" r="2" fill="#003B73"/>
<circle cx="78" cy="34" r="2" fill="#003B73"/>
<circle cx="124" cy="34" r="2" fill="#003B73"/>
<circle cx="170" cy="34" r="2" fill="#003B73"/>
<circle cx="216" cy="34" r="2" fill="#003B73"/>
<circle cx="262" cy="34" r="2" fill="#003B73"/>
<circle cx="308" cy="34" r="2" fill="#003B73"/>
<circle cx="354" cy="34" r="2" fill="#003B73"/>
<circle cx="446" cy="34" r="2" fill="#003B73"/>
<circle cx="51" cy="57" r="2" fill="#003B73"/>
<circle cx="97" cy="57" r="2" fill="#003B73"/>
<circle cx="143" cy="57" r="2" fill="#003B73"/>
<circle cx="189" cy="57" r="2" fill="#003B73"/>
<circle cx="235" cy="57" r="2" fill="#003B73"/>
<circle cx="281" cy="57" r="2" fill="#003B73"/>
<circle cx="327" cy="57" r="2" fill="#003B73"/>
<circle cx="373" cy="57" r="2" fill="#003B73"/>
<circle cx="419" cy="57" r="2" fill="#003B73"/>
<circle cx="465" cy="57" r="2" fill="#003B73"/>
<circle cx="70" cy="80" r="2" fill="#003B73"/>
<circle cx="116" cy="80" r="2" fill="#003B73"/>
<circle cx="162" cy="80" r="2" fill="#003B73"/>
<circle cx="208" cy="80" r="2" fill="#003B73"/>
<circle cx="254" cy="80" r="2" fill="#003B73"/>
<circle cx="300" cy="80" r="2" fill="#003B73"/>
<circle cx="346" cy="80" r="2" fill="#003B73"/>
<circle cx="392" cy="80" r="2" fill="#003B73"/>
<circle cx="438" cy="80" r="2" fill="#003B73"/>
<circle cx="24" cy="11" r="2" fill="#003B73"/>
<circle cx="70" cy="11" r="2" fill="#003B73"/>
<circle cx="162" cy="11" r="2" fill="#003B73"/>
<circle cx="254" cy="11" r="2" fill="#003B73"/>
<circle cx="346" cy="11" r="2" fill="#003B73"/>
<circle cx="438" cy="11" r="2" fill="#003B73"/>
<circle cx="484" cy="11" r="2" fill="#003B73"/>
<circle cx="55" cy="103" r="2" fill="#003B73"/>
<circle cx="101" cy="103" r="2" fill="#003B73"/>
<circle cx="147" cy="103" r="2" fill="#003B73"/>
<circle cx="193" cy="103" r="2" fill="#003B73"/>
<circle cx="239" cy="103" r="2" fill="#003B73"/>
<circle cx="285" cy="103" r="2" fill="#003B73"/>
<circle cx="331" cy="103" r="2" fill="#003B73"/>
<circle cx="377" cy="103" r="2" fill="#003B73"/>
<circle cx="423" cy="103" r="2" fill="#003B73"/>
<circle cx="55" cy="34" r="2" fill="#003B73"/>
<circle cx="147" cy="34" r="2" fill="#003B73"/>
<circle cx="193" cy="34" r="2" fill="#003B73"/>
<circle cx="239" cy="34" r="2" fill="#003B73"/>
<circle cx="285" cy="34" r="2" fill="#003B73"/>
<circle cx="331" cy="34" r="2" fill="#003B73"/>
<circle cx="377" cy="34" r="2" fill="#003B73"/>
<circle cx="423" cy="34" r="2" fill="#003B73"/>
<circle cx="469" cy="34" r="2" fill="#003B73"/>
</svg>
